<mxfile host="65bd71144e" modified="2020-11-13T14:52:23.997Z" agent="5.0 (Macintosh; Intel Mac OS X 10_15_5) AppleWebKit/537.36 (KHTML, like Gecko) Code/1.50.1 Chrome/83.0.4103.122 Electron/9.2.1 Safari/537.36" etag="hMkJ4LDpdqQOp8cY2GlU" version="13.6.5" pages="3">
    <diagram id="Y3HAgoVvv4seeHsHzVnI" name="Create Jam">
        <mxGraphModel dx="508" dy="680" grid="1" gridSize="10" guides="1" tooltips="1" connect="1" arrows="1" fold="1" page="1" pageScale="1" pageWidth="827" pageHeight="1169" math="0" shadow="0">
            <root>
                <mxCell id="0"/>
                <mxCell id="1" parent="0"/>
                <mxCell id="dZ4XKpADTy1M91sUKETT-4" style="edgeStyle=orthogonalEdgeStyle;rounded=0;orthogonalLoop=1;jettySize=auto;html=1;" parent="1" source="dZ4XKpADTy1M91sUKETT-2" target="dZ4XKpADTy1M91sUKETT-3" edge="1">
                    <mxGeometry relative="1" as="geometry"/>
                </mxCell>
                <mxCell id="dZ4XKpADTy1M91sUKETT-2" value="create Jam" style="rounded=0;whiteSpace=wrap;html=1;" parent="1" vertex="1">
                    <mxGeometry x="120" y="40" width="120" height="40" as="geometry"/>
                </mxCell>
                <mxCell id="dZ4XKpADTy1M91sUKETT-9" style="edgeStyle=orthogonalEdgeStyle;rounded=0;orthogonalLoop=1;jettySize=auto;html=1;entryX=0;entryY=0.5;entryDx=0;entryDy=0;" parent="1" source="dZ4XKpADTy1M91sUKETT-3" target="dZ4XKpADTy1M91sUKETT-8" edge="1">
                    <mxGeometry relative="1" as="geometry"/>
                </mxCell>
                <mxCell id="dZ4XKpADTy1M91sUKETT-11" style="edgeStyle=orthogonalEdgeStyle;rounded=0;orthogonalLoop=1;jettySize=auto;html=1;entryX=0;entryY=0.5;entryDx=0;entryDy=0;" parent="1" source="dZ4XKpADTy1M91sUKETT-3" target="dZ4XKpADTy1M91sUKETT-10" edge="1">
                    <mxGeometry relative="1" as="geometry"/>
                </mxCell>
                <mxCell id="dZ4XKpADTy1M91sUKETT-12" style="edgeStyle=orthogonalEdgeStyle;rounded=0;orthogonalLoop=1;jettySize=auto;html=1;entryX=0;entryY=0.5;entryDx=0;entryDy=0;" parent="1" source="dZ4XKpADTy1M91sUKETT-3" target="dZ4XKpADTy1M91sUKETT-6" edge="1">
                    <mxGeometry relative="1" as="geometry"/>
                </mxCell>
                <mxCell id="dZ4XKpADTy1M91sUKETT-3" value="Name&lt;br&gt;Desc&lt;br&gt;Type&lt;br&gt;roomNr" style="shape=document;whiteSpace=wrap;html=1;boundedLbl=1;" parent="1" vertex="1">
                    <mxGeometry x="120" y="130" width="120" height="80" as="geometry"/>
                </mxCell>
                <mxCell id="dZ4XKpADTy1M91sUKETT-6" value="jams" style="shape=cylinder;whiteSpace=wrap;html=1;boundedLbl=1;backgroundOutline=1;" parent="1" vertex="1">
                    <mxGeometry x="680" y="40" width="60" height="80" as="geometry"/>
                </mxCell>
                <mxCell id="dZ4XKpADTy1M91sUKETT-8" value="user/&lt;br&gt;userJams" style="shape=cylinder;whiteSpace=wrap;html=1;boundedLbl=1;backgroundOutline=1;" parent="1" vertex="1">
                    <mxGeometry x="680" y="130" width="60" height="80" as="geometry"/>
                </mxCell>
                <mxCell id="dZ4XKpADTy1M91sUKETT-10" value="jam/&lt;br&gt;jammers" style="shape=cylinder;whiteSpace=wrap;html=1;boundedLbl=1;backgroundOutline=1;" parent="1" vertex="1">
                    <mxGeometry x="680" y="230" width="60" height="80" as="geometry"/>
                </mxCell>
            </root>
        </mxGraphModel>
    </diagram>
    <diagram id="Y08_fnQRolL3kIIKKcou" name="New Tenant">
        <mxGraphModel dx="647" dy="680" grid="1" gridSize="10" guides="1" tooltips="1" connect="1" arrows="1" fold="1" page="1" pageScale="1" pageWidth="827" pageHeight="1169" math="0" shadow="0">
            <root>
                <mxCell id="pGPQ3kAMwTJUQKvdGGm3-0"/>
                <mxCell id="pGPQ3kAMwTJUQKvdGGm3-1" parent="pGPQ3kAMwTJUQKvdGGm3-0"/>
                <mxCell id="pGPQ3kAMwTJUQKvdGGm3-5" style="edgeStyle=orthogonalEdgeStyle;rounded=0;orthogonalLoop=1;jettySize=auto;html=1;entryX=0;entryY=0.5;entryDx=0;entryDy=0;" parent="pGPQ3kAMwTJUQKvdGGm3-1" source="pGPQ3kAMwTJUQKvdGGm3-3" target="pGPQ3kAMwTJUQKvdGGm3-11" edge="1">
                    <mxGeometry relative="1" as="geometry"/>
                </mxCell>
                <mxCell id="pGPQ3kAMwTJUQKvdGGm3-8" style="edgeStyle=orthogonalEdgeStyle;rounded=0;orthogonalLoop=1;jettySize=auto;html=1;entryX=0.5;entryY=0;entryDx=0;entryDy=0;" parent="pGPQ3kAMwTJUQKvdGGm3-1" source="pGPQ3kAMwTJUQKvdGGm3-3" target="pGPQ3kAMwTJUQKvdGGm3-6" edge="1">
                    <mxGeometry relative="1" as="geometry"/>
                </mxCell>
                <mxCell id="pGPQ3kAMwTJUQKvdGGm3-3" value="name, surname, email&lt;br&gt;roomNr, rent, deposit, jamId" style="shape=document;whiteSpace=wrap;html=1;boundedLbl=1;" parent="pGPQ3kAMwTJUQKvdGGm3-1" vertex="1">
                    <mxGeometry x="130" y="120" width="140" height="80" as="geometry"/>
                </mxCell>
                <mxCell id="pGPQ3kAMwTJUQKvdGGm3-11" value="jam/&lt;br&gt;Invitations" style="shape=cylinder;whiteSpace=wrap;html=1;boundedLbl=1;backgroundOutline=1;" parent="pGPQ3kAMwTJUQKvdGGm3-1" vertex="1">
                    <mxGeometry x="490" y="120" width="60" height="80" as="geometry"/>
                </mxCell>
                <mxCell id="XVNK5XDSsVDoPfEAKXIv-1" style="edgeStyle=orthogonalEdgeStyle;rounded=0;orthogonalLoop=1;jettySize=auto;html=1;entryX=0;entryY=0.5;entryDx=0;entryDy=0;" parent="pGPQ3kAMwTJUQKvdGGm3-1" source="pGPQ3kAMwTJUQKvdGGm3-6" target="XVNK5XDSsVDoPfEAKXIv-0" edge="1">
                    <mxGeometry relative="1" as="geometry"/>
                </mxCell>
                <mxCell id="x5kul6A-tB1OSjJnYS_4-3" style="edgeStyle=orthogonalEdgeStyle;rounded=0;orthogonalLoop=1;jettySize=auto;html=1;entryX=0.5;entryY=0;entryDx=0;entryDy=0;" parent="pGPQ3kAMwTJUQKvdGGm3-1" source="pGPQ3kAMwTJUQKvdGGm3-6" target="x5kul6A-tB1OSjJnYS_4-2" edge="1">
                    <mxGeometry relative="1" as="geometry"/>
                </mxCell>
                <mxCell id="pGPQ3kAMwTJUQKvdGGm3-6" value="email, password, registered: false,&lt;br&gt;jamId,&lt;br&gt;userId" style="shape=document;whiteSpace=wrap;html=1;boundedLbl=1;" parent="pGPQ3kAMwTJUQKvdGGm3-1" vertex="1">
                    <mxGeometry x="130" y="300" width="140" height="80" as="geometry"/>
                </mxCell>
                <mxCell id="XVNK5XDSsVDoPfEAKXIv-0" value="user" style="shape=cylinder;whiteSpace=wrap;html=1;boundedLbl=1;backgroundOutline=1;" parent="pGPQ3kAMwTJUQKvdGGm3-1" vertex="1">
                    <mxGeometry x="490" y="300" width="60" height="80" as="geometry"/>
                </mxCell>
                <mxCell id="x5kul6A-tB1OSjJnYS_4-0" value="JamRegistrationForm" style="rounded=1;whiteSpace=wrap;html=1;fillColor=#008a00;strokeColor=#005700;fontColor=#ffffff;" parent="pGPQ3kAMwTJUQKvdGGm3-1" vertex="1">
                    <mxGeometry x="10" y="410" width="160" height="30" as="geometry"/>
                </mxCell>
                <mxCell id="x5kul6A-tB1OSjJnYS_4-1" value="RegisterWIthInvitation" style="rounded=1;whiteSpace=wrap;html=1;fillColor=#008a00;strokeColor=#005700;fontColor=#ffffff;" parent="pGPQ3kAMwTJUQKvdGGm3-1" vertex="1">
                    <mxGeometry x="10" y="250" width="160" height="30" as="geometry"/>
                </mxCell>
                <mxCell id="x5kul6A-tB1OSjJnYS_4-5" style="edgeStyle=orthogonalEdgeStyle;rounded=0;orthogonalLoop=1;jettySize=auto;html=1;entryX=0;entryY=0.5;entryDx=0;entryDy=0;" parent="pGPQ3kAMwTJUQKvdGGm3-1" source="x5kul6A-tB1OSjJnYS_4-2" target="x5kul6A-tB1OSjJnYS_4-4" edge="1">
                    <mxGeometry relative="1" as="geometry"/>
                </mxCell>
                <mxCell id="x5kul6A-tB1OSjJnYS_4-2" value="address, tel, handy, passport . . . .&amp;nbsp;" style="shape=document;whiteSpace=wrap;html=1;boundedLbl=1;" parent="pGPQ3kAMwTJUQKvdGGm3-1" vertex="1">
                    <mxGeometry x="130" y="460" width="140" height="80" as="geometry"/>
                </mxCell>
                <mxCell id="x5kul6A-tB1OSjJnYS_4-20" style="edgeStyle=orthogonalEdgeStyle;rounded=0;orthogonalLoop=1;jettySize=auto;html=1;entryX=0;entryY=0.5;entryDx=0;entryDy=0;" parent="pGPQ3kAMwTJUQKvdGGm3-1" source="x5kul6A-tB1OSjJnYS_4-4" target="x5kul6A-tB1OSjJnYS_4-18" edge="1">
                    <mxGeometry relative="1" as="geometry"/>
                </mxCell>
                <mxCell id="x5kul6A-tB1OSjJnYS_4-21" style="edgeStyle=orthogonalEdgeStyle;rounded=0;orthogonalLoop=1;jettySize=auto;html=1;entryX=0;entryY=0.5;entryDx=0;entryDy=0;" parent="pGPQ3kAMwTJUQKvdGGm3-1" source="x5kul6A-tB1OSjJnYS_4-4" target="x5kul6A-tB1OSjJnYS_4-19" edge="1">
                    <mxGeometry relative="1" as="geometry"/>
                </mxCell>
                <mxCell id="x5kul6A-tB1OSjJnYS_4-22" style="edgeStyle=orthogonalEdgeStyle;rounded=0;orthogonalLoop=1;jettySize=auto;html=1;entryX=0;entryY=0.5;entryDx=0;entryDy=0;" parent="pGPQ3kAMwTJUQKvdGGm3-1" source="x5kul6A-tB1OSjJnYS_4-4" target="x5kul6A-tB1OSjJnYS_4-6" edge="1">
                    <mxGeometry relative="1" as="geometry"/>
                </mxCell>
                <mxCell id="x5kul6A-tB1OSjJnYS_4-4" value="jam/&lt;br&gt;invitations/&lt;br&gt;userReply" style="shape=cylinder;whiteSpace=wrap;html=1;boundedLbl=1;backgroundOutline=1;" parent="pGPQ3kAMwTJUQKvdGGm3-1" vertex="1">
                    <mxGeometry x="491" y="460" width="60" height="80" as="geometry"/>
                </mxCell>
                <mxCell id="x5kul6A-tB1OSjJnYS_4-6" value="jam/&lt;br&gt;todo" style="shape=cylinder;whiteSpace=wrap;html=1;boundedLbl=1;backgroundOutline=1;" parent="pGPQ3kAMwTJUQKvdGGm3-1" vertex="1">
                    <mxGeometry x="671" y="560" width="60" height="80" as="geometry"/>
                </mxCell>
                <mxCell id="x5kul6A-tB1OSjJnYS_4-9" value="firstName&lt;br&gt;lastName&lt;br&gt;RoomId" style="text;html=1;strokeColor=none;fillColor=none;align=center;verticalAlign=middle;whiteSpace=wrap;rounded=0;" parent="pGPQ3kAMwTJUQKvdGGm3-1" vertex="1">
                    <mxGeometry x="401" y="435" width="80" height="50" as="geometry"/>
                </mxCell>
                <mxCell id="x5kul6A-tB1OSjJnYS_4-12" value="JamRegistrationForm" style="rounded=1;whiteSpace=wrap;html=1;fillColor=#008a00;strokeColor=#005700;fontColor=#ffffff;" parent="pGPQ3kAMwTJUQKvdGGm3-1" vertex="1">
                    <mxGeometry x="10" y="600" width="160" height="30" as="geometry"/>
                </mxCell>
                <mxCell id="x5kul6A-tB1OSjJnYS_4-18" value="jam/&lt;br&gt;jammers/" style="shape=cylinder;whiteSpace=wrap;html=1;boundedLbl=1;backgroundOutline=1;" parent="pGPQ3kAMwTJUQKvdGGm3-1" vertex="1">
                    <mxGeometry x="671" y="360" width="60" height="80" as="geometry"/>
                </mxCell>
                <mxCell id="x5kul6A-tB1OSjJnYS_4-19" value="jam/&lt;br&gt;jammers/" style="shape=cylinder;whiteSpace=wrap;html=1;boundedLbl=1;backgroundOutline=1;" parent="pGPQ3kAMwTJUQKvdGGm3-1" vertex="1">
                    <mxGeometry x="671" y="460" width="60" height="80" as="geometry"/>
                </mxCell>
                <mxCell id="x5kul6A-tB1OSjJnYS_4-23" value="This collection triggers an email to the admin" style="text;html=1;strokeColor=none;fillColor=none;align=center;verticalAlign=middle;whiteSpace=wrap;rounded=0;" parent="pGPQ3kAMwTJUQKvdGGm3-1" vertex="1">
                    <mxGeometry x="626" y="650" width="150" height="50" as="geometry"/>
                </mxCell>
                <mxCell id="x5kul6A-tB1OSjJnYS_4-26" value="This collection triggers an email to the user" style="text;html=1;strokeColor=none;fillColor=none;align=center;verticalAlign=middle;whiteSpace=wrap;rounded=0;" parent="pGPQ3kAMwTJUQKvdGGm3-1" vertex="1">
                    <mxGeometry x="560" y="135" width="150" height="50" as="geometry"/>
                </mxCell>
                <mxCell id="gLwybJY-Q1TYtNgRpCij-0" value="InvitationForm" style="rounded=1;whiteSpace=wrap;html=1;fillColor=#008a00;strokeColor=#005700;fontColor=#ffffff;" parent="pGPQ3kAMwTJUQKvdGGm3-1" vertex="1">
                    <mxGeometry y="70" width="160" height="30" as="geometry"/>
                </mxCell>
                <mxCell id="gLwybJY-Q1TYtNgRpCij-1" value="Mail al tenant con link para registrarse" style="text;html=1;align=center;verticalAlign=middle;resizable=0;points=[];autosize=1;" parent="pGPQ3kAMwTJUQKvdGGm3-1" vertex="1">
                    <mxGeometry x="210" y="230" width="220" height="20" as="geometry"/>
                </mxCell>
                <mxCell id="gLwybJY-Q1TYtNgRpCij-2" value="Automáticamente se le abre el &lt;br&gt;Registration Form en el Jam" style="text;html=1;align=center;verticalAlign=middle;resizable=0;points=[];autosize=1;" parent="pGPQ3kAMwTJUQKvdGGm3-1" vertex="1">
                    <mxGeometry x="200" y="600" width="180" height="30" as="geometry"/>
                </mxCell>
            </root>
        </mxGraphModel>
    </diagram>
    <diagram id="G2dq7VhwcU3IhgLZq6RB" name="Register">
        &#xa;        &#xa;&#xa;
        <mxGraphModel dx="898" dy="680" grid="1" gridSize="10" guides="1" tooltips="1" connect="1" arrows="1" fold="1" page="1" pageScale="1" pageWidth="827" pageHeight="1169" math="0" shadow="0">
            &#xa;            &#xa;&#xa;
            <root>
                &#xa;                &#xa;&#xa;
                <mxCell id="5Eyw0_82HpbGFbuOSJee-0"/>
                &#xa;                &#xa;&#xa;
                <mxCell id="5Eyw0_82HpbGFbuOSJee-1" parent="5Eyw0_82HpbGFbuOSJee-0"/>
                &#xa;                &#xa;&#xa;
                <mxCell id="tqpB6oHCvqCvA6pMx_D--0" style="edgeStyle=orthogonalEdgeStyle;rounded=0;orthogonalLoop=1;jettySize=auto;html=1;" parent="5Eyw0_82HpbGFbuOSJee-1" source="tqpB6oHCvqCvA6pMx_D--3" target="tqpB6oHCvqCvA6pMx_D--6" edge="1">
                    &#xa;                    &#xa;&#xa;
                    <mxGeometry relative="1" as="geometry"/>
                    &#xa;                    &#xa;&#xa;
                </mxCell>
                &#xa;                &#xa;&#xa;
                <mxCell id="tqpB6oHCvqCvA6pMx_D--1" style="edgeStyle=orthogonalEdgeStyle;rounded=0;orthogonalLoop=1;jettySize=auto;html=1;entryX=0;entryY=0.5;entryDx=0;entryDy=0;" parent="5Eyw0_82HpbGFbuOSJee-1" source="tqpB6oHCvqCvA6pMx_D--3" target="tqpB6oHCvqCvA6pMx_D--5" edge="1">
                    &#xa;                    &#xa;&#xa;
                    <mxGeometry relative="1" as="geometry"/>
                    &#xa;                    &#xa;&#xa;
                </mxCell>
                &#xa;                &#xa;&#xa;
                <mxCell id="tqpB6oHCvqCvA6pMx_D--3" value="Address &amp;amp; personal info&lt;br&gt;registered: true" style="shape=document;whiteSpace=wrap;html=1;boundedLbl=1;" parent="5Eyw0_82HpbGFbuOSJee-1" vertex="1">
                    &#xa;                    &#xa;&#xa;
                    <mxGeometry x="130" y="120" width="140" height="80" as="geometry"/>
                    &#xa;                    &#xa;&#xa;
                </mxCell>
                &#xa;                &#xa;&#xa;
                <mxCell id="tqpB6oHCvqCvA6pMx_D--5" value="user/&lt;br&gt;userJams" style="shape=cylinder;whiteSpace=wrap;html=1;boundedLbl=1;backgroundOutline=1;" parent="5Eyw0_82HpbGFbuOSJee-1" vertex="1">
                    &#xa;                    &#xa;&#xa;
                    <mxGeometry x="490" y="160" width="60" height="80" as="geometry"/>
                    &#xa;                    &#xa;&#xa;
                </mxCell>
                &#xa;                &#xa;&#xa;
                <mxCell id="tqpB6oHCvqCvA6pMx_D--6" value="user" style="shape=cylinder;whiteSpace=wrap;html=1;boundedLbl=1;backgroundOutline=1;" parent="5Eyw0_82HpbGFbuOSJee-1" vertex="1">
                    &#xa;                    &#xa;&#xa;
                    <mxGeometry x="490" y="70" width="60" height="80" as="geometry"/>
                    &#xa;                    &#xa;&#xa;
                </mxCell>
                &#xa;                &#xa;&#xa;
                <mxCell id="tqpB6oHCvqCvA6pMx_D--9" value="RegisterForm" style="text;html=1;strokeColor=none;fillColor=none;align=left;verticalAlign=middle;whiteSpace=wrap;rounded=0;" parent="5Eyw0_82HpbGFbuOSJee-1" vertex="1">
                    &#xa;                    &#xa;&#xa;
                    <mxGeometry x="130" y="90" width="110" height="20" as="geometry"/>
                    &#xa;                    &#xa;&#xa;
                </mxCell>
                &#xa;                &#xa;&#xa;
                <mxCell id="tqpB6oHCvqCvA6pMx_D--10" value="update&lt;span style=&quot;color: rgba(0 , 0 , 0 , 0) ; font-family: monospace ; font-size: 0px&quot;&gt;%3CmxGraphModel%3E%3Croot%3E%3CmxCell%20id%3D%220%22%2F%3E%3CmxCell%20id%3D%221%22%20parent%3D%220%22%2F%3E%3CmxCell%20id%3D%222%22%20style%3D%22edgeStyle%3DorthogonalEdgeStyle%3Brounded%3D0%3BorthogonalLoop%3D1%3BjettySize%3Dauto%3Bhtml%3D1%3B%22%20edge%3D%221%22%20source%3D%225%22%20target%3D%228%22%20parent%3D%221%22%3E%3CmxGeometry%20relative%3D%221%22%20as%3D%22geometry%22%2F%3E%3C%2FmxCell%3E%3CmxCell%20id%3D%223%22%20style%3D%22edgeStyle%3DorthogonalEdgeStyle%3Brounded%3D0%3BorthogonalLoop%3D1%3BjettySize%3Dauto%3Bhtml%3D1%3BentryX%3D0%3BentryY%3D0.5%3BentryDx%3D0%3BentryDy%3D0%3B%22%20edge%3D%221%22%20source%3D%225%22%20target%3D%227%22%20parent%3D%221%22%3E%3CmxGeometry%20relative%3D%221%22%20as%3D%22geometry%22%2F%3E%3C%2FmxCell%3E%3CmxCell%20id%3D%224%22%20style%3D%22edgeStyle%3DorthogonalEdgeStyle%3Brounded%3D0%3BorthogonalLoop%3D1%3BjettySize%3Dauto%3Bhtml%3D1%3BentryX%3D0.5%3BentryY%3D0%3BentryDx%3D0%3BentryDy%3D0%3B%22%20edge%3D%221%22%20source%3D%225%22%20target%3D%2210%22%20parent%3D%221%22%3E%3CmxGeometry%20relative%3D%221%22%20as%3D%22geometry%22%2F%3E%3C%2FmxCell%3E%3CmxCell%20id%3D%225%22%20value%3D%22name%2C%20surname%2C%20email%20registered%3A%20false%2C%26amp%3Bnbsp%3B%26lt%3Bbr%26gt%3BjamId%22%20style%3D%22shape%3Ddocument%3BwhiteSpace%3Dwrap%3Bhtml%3D1%3BboundedLbl%3D1%3B%22%20vertex%3D%221%22%20parent%3D%221%22%3E%3CmxGeometry%20x%3D%22130%22%20y%3D%22120%22%20width%3D%22140%22%20height%3D%2280%22%20as%3D%22geometry%22%2F%3E%3C%2FmxCell%3E%3CmxCell%20id%3D%226%22%20value%3D%22jam%2F%26lt%3Bbr%26gt%3Bjammers%22%20style%3D%22shape%3Dcylinder%3BwhiteSpace%3Dwrap%3Bhtml%3D1%3BboundedLbl%3D1%3BbackgroundOutline%3D1%3B%22%20vertex%3D%221%22%20parent%3D%221%22%3E%3CmxGeometry%20x%3D%22490%22%20y%3D%22280%22%20width%3D%2260%22%20height%3D%2280%22%20as%3D%22geometry%22%2F%3E%3C%2FmxCell%3E%3CmxCell%20id%3D%227%22%20value%3D%22user%2F%26lt%3Bbr%26gt%3BuserJams%22%20style%3D%22shape%3Dcylinder%3BwhiteSpace%3Dwrap%3Bhtml%3D1%3BboundedLbl%3D1%3BbackgroundOutline%3D1%3B%22%20vertex%3D%221%22%20parent%3D%221%22%3E%3CmxGeometry%20x%3D%22490%22%20y%3D%22160%22%20width%3D%2260%22%20height%3D%2280%22%20as%3D%22geometry%22%2F%3E%3C%2FmxCell%3E%3CmxCell%20id%3D%228%22%20value%3D%22user%22%20style%3D%22shape%3Dcylinder%3BwhiteSpace%3Dwrap%3Bhtml%3D1%3BboundedLbl%3D1%3BbackgroundOutline%3D1%3B%22%20vertex%3D%221%22%20parent%3D%221%22%3E%3CmxGeometry%20x%3D%22490%22%20y%3D%2270%22%20width%3D%2260%22%20height%3D%2280%22%20as%3D%22geometry%22%2F%3E%3C%2FmxCell%3E%3CmxCell%20id%3D%229%22%20style%3D%22edgeStyle%3DorthogonalEdgeStyle%3Brounded%3D0%3BorthogonalLoop%3D1%3BjettySize%3Dauto%3Bhtml%3D1%3BentryX%3D0%3BentryY%3D0.5%3BentryDx%3D0%3BentryDy%3D0%3B%22%20edge%3D%221%22%20source%3D%2210%22%20target%3D%226%22%20parent%3D%221%22%3E%3CmxGeometry%20relative%3D%221%22%20as%3D%22geometry%22%2F%3E%3C%2FmxCell%3E%3CmxCell%20id%3D%2210%22%20value%3D%22name%2C%20surname%2C%20email%20registered%3A%20false%2C%26lt%3Bbr%26gt%3BjamId%2C%26lt%3Bbr%26gt%3BuserId%22%20style%3D%22shape%3Ddocument%3BwhiteSpace%3Dwrap%3Bhtml%3D1%3BboundedLbl%3D1%3B%22%20vertex%3D%221%22%20parent%3D%221%22%3E%3CmxGeometry%20x%3D%22130%22%20y%3D%22280%22%20width%3D%22140%22%20height%3D%2280%22%20as%3D%22geometry%22%2F%3E%3C%2FmxCell%3E%3CmxCell%20id%3D%2211%22%20value%3D%22NewTenantForm%22%20style%3D%22text%3Bhtml%3D1%3BstrokeColor%3Dnone%3BfillColor%3Dnone%3Balign%3Dleft%3BverticalAlign%3Dmiddle%3BwhiteSpace%3Dwrap%3Brounded%3D0%3B%22%20vertex%3D%221%22%20parent%3D%221%22%3E%3CmxGeometry%20x%3D%22130%22%20y%3D%2290%22%20width%3D%22110%22%20height%3D%2220%22%20as%3D%22geometry%22%2F%3E%3C%2FmxCell%3E%3C%2Froot%3E%3C%2FmxGraphModel%3E&lt;/span&gt;" style="text;html=1;strokeColor=none;fillColor=none;align=center;verticalAlign=middle;whiteSpace=wrap;rounded=0;" parent="5Eyw0_82HpbGFbuOSJee-1" vertex="1">
                    &#xa;                    &#xa;&#xa;
                    <mxGeometry x="394" y="90" width="40" height="20" as="geometry"/>
                    &#xa;                    &#xa;&#xa;
                </mxCell>
                &#xa;                &#xa;&#xa;
                <mxCell id="tqpB6oHCvqCvA6pMx_D--11" value="update&lt;span style=&quot;color: rgba(0 , 0 , 0 , 0) ; font-family: monospace ; font-size: 0px&quot;&gt;%3CmxGraphModel%3E%3Croot%3E%3CmxCell%20id%3D%220%22%2F%3E%3CmxCell%20id%3D%221%22%20parent%3D%220%22%2F%3E%3CmxCell%20id%3D%222%22%20style%3D%22edgeStyle%3DorthogonalEdgeStyle%3Brounded%3D0%3BorthogonalLoop%3D1%3BjettySize%3Dauto%3Bhtml%3D1%3B%22%20edge%3D%221%22%20source%3D%225%22%20target%3D%228%22%20parent%3D%221%22%3E%3CmxGeometry%20relative%3D%221%22%20as%3D%22geometry%22%2F%3E%3C%2FmxCell%3E%3CmxCell%20id%3D%223%22%20style%3D%22edgeStyle%3DorthogonalEdgeStyle%3Brounded%3D0%3BorthogonalLoop%3D1%3BjettySize%3Dauto%3Bhtml%3D1%3BentryX%3D0%3BentryY%3D0.5%3BentryDx%3D0%3BentryDy%3D0%3B%22%20edge%3D%221%22%20source%3D%225%22%20target%3D%227%22%20parent%3D%221%22%3E%3CmxGeometry%20relative%3D%221%22%20as%3D%22geometry%22%2F%3E%3C%2FmxCell%3E%3CmxCell%20id%3D%224%22%20style%3D%22edgeStyle%3DorthogonalEdgeStyle%3Brounded%3D0%3BorthogonalLoop%3D1%3BjettySize%3Dauto%3Bhtml%3D1%3BentryX%3D0.5%3BentryY%3D0%3BentryDx%3D0%3BentryDy%3D0%3B%22%20edge%3D%221%22%20source%3D%225%22%20target%3D%2210%22%20parent%3D%221%22%3E%3CmxGeometry%20relative%3D%221%22%20as%3D%22geometry%22%2F%3E%3C%2FmxCell%3E%3CmxCell%20id%3D%225%22%20value%3D%22name%2C%20surname%2C%20email%20registered%3A%20false%2C%26amp%3Bnbsp%3B%26lt%3Bbr%26gt%3BjamId%22%20style%3D%22shape%3Ddocument%3BwhiteSpace%3Dwrap%3Bhtml%3D1%3BboundedLbl%3D1%3B%22%20vertex%3D%221%22%20parent%3D%221%22%3E%3CmxGeometry%20x%3D%22130%22%20y%3D%22120%22%20width%3D%22140%22%20height%3D%2280%22%20as%3D%22geometry%22%2F%3E%3C%2FmxCell%3E%3CmxCell%20id%3D%226%22%20value%3D%22jam%2F%26lt%3Bbr%26gt%3Bjammers%22%20style%3D%22shape%3Dcylinder%3BwhiteSpace%3Dwrap%3Bhtml%3D1%3BboundedLbl%3D1%3BbackgroundOutline%3D1%3B%22%20vertex%3D%221%22%20parent%3D%221%22%3E%3CmxGeometry%20x%3D%22490%22%20y%3D%22280%22%20width%3D%2260%22%20height%3D%2280%22%20as%3D%22geometry%22%2F%3E%3C%2FmxCell%3E%3CmxCell%20id%3D%227%22%20value%3D%22user%2F%26lt%3Bbr%26gt%3BuserJams%22%20style%3D%22shape%3Dcylinder%3BwhiteSpace%3Dwrap%3Bhtml%3D1%3BboundedLbl%3D1%3BbackgroundOutline%3D1%3B%22%20vertex%3D%221%22%20parent%3D%221%22%3E%3CmxGeometry%20x%3D%22490%22%20y%3D%22160%22%20width%3D%2260%22%20height%3D%2280%22%20as%3D%22geometry%22%2F%3E%3C%2FmxCell%3E%3CmxCell%20id%3D%228%22%20value%3D%22user%22%20style%3D%22shape%3Dcylinder%3BwhiteSpace%3Dwrap%3Bhtml%3D1%3BboundedLbl%3D1%3BbackgroundOutline%3D1%3B%22%20vertex%3D%221%22%20parent%3D%221%22%3E%3CmxGeometry%20x%3D%22490%22%20y%3D%2270%22%20width%3D%2260%22%20height%3D%2280%22%20as%3D%22geometry%22%2F%3E%3C%2FmxCell%3E%3CmxCell%20id%3D%229%22%20style%3D%22edgeStyle%3DorthogonalEdgeStyle%3Brounded%3D0%3BorthogonalLoop%3D1%3BjettySize%3Dauto%3Bhtml%3D1%3BentryX%3D0%3BentryY%3D0.5%3BentryDx%3D0%3BentryDy%3D0%3B%22%20edge%3D%221%22%20source%3D%2210%22%20target%3D%226%22%20parent%3D%221%22%3E%3CmxGeometry%20relative%3D%221%22%20as%3D%22geometry%22%2F%3E%3C%2FmxCell%3E%3CmxCell%20id%3D%2210%22%20value%3D%22name%2C%20surname%2C%20email%20registered%3A%20false%2C%26lt%3Bbr%26gt%3BjamId%2C%26lt%3Bbr%26gt%3BuserId%22%20style%3D%22shape%3Ddocument%3BwhiteSpace%3Dwrap%3Bhtml%3D1%3BboundedLbl%3D1%3B%22%20vertex%3D%221%22%20parent%3D%221%22%3E%3CmxGeometry%20x%3D%22130%22%20y%3D%22280%22%20width%3D%22140%22%20height%3D%2280%22%20as%3D%22geometry%22%2F%3E%3C%2FmxCell%3E%3CmxCell%20id%3D%2211%22%20value%3D%22NewTenantForm%22%20style%3D%22text%3Bhtml%3D1%3BstrokeColor%3Dnone%3BfillColor%3Dnone%3Balign%3Dleft%3BverticalAlign%3Dmiddle%3BwhiteSpace%3Dwrap%3Brounded%3D0%3B%22%20vertex%3D%221%22%20parent%3D%221%22%3E%3CmxGeometry%20x%3D%22130%22%20y%3D%2290%22%20width%3D%22110%22%20height%3D%2220%22%20as%3D%22geometry%22%2F%3E%3C%2FmxCell%3E%3C%2Froot%3E%3C%2FmxGraphModel%3E&lt;/span&gt;" style="text;html=1;strokeColor=none;fillColor=none;align=center;verticalAlign=middle;whiteSpace=wrap;rounded=0;" parent="5Eyw0_82HpbGFbuOSJee-1" vertex="1">
                    &#xa;                    &#xa;&#xa;
                    <mxGeometry x="394" y="180" width="40" height="20" as="geometry"/>
                    &#xa;                    &#xa;&#xa;
                </mxCell>
                &#xa;                &#xa;&#xa;
                <mxCell id="9sAiqIJvkz2LRuallNHQ-0" value="&amp;lt;useTenantPersonalInfoForm /&amp;gt;" style="rounded=1;whiteSpace=wrap;html=1;align=center;fillColor=#d5e8d4;strokeColor=#82b366;" parent="5Eyw0_82HpbGFbuOSJee-1" vertex="1">
                    &#xa;                    &#xa;&#xa;
                    <mxGeometry x="140" y="240" width="190" height="25" as="geometry"/>
                    &#xa;                    &#xa;&#xa;
                </mxCell>
                &#xa;                &#xa;&#xa;
            </root>
            &#xa;            &#xa;&#xa;
        </mxGraphModel>
        &#xa;        &#xa;&#xa;
    </diagram>
</mxfile>